<svg width="27" height="25" viewBox="0 0 27 25" fill="none" xmlns="http://www.w3.org/2000/svg"><path d="M22.1636 4.55227C20.5702 3.82117 18.8615 3.2825 17.0749 2.97395C17.0424 2.96799 17.0099 2.98289 16.9932 3.01262C16.7734 3.40349 16.53 3.91336 16.3595 4.31414C14.438 4.02644 12.5263 4.02644 10.6441 4.31414C10.4736 3.90447 10.2214 3.40349 10.0006 3.01262C9.98387 2.98386 9.95135 2.96897 9.91884 2.97395C8.13329 3.28147 6.4246 3.82014 4.83016 4.55227C4.81635 4.55823 4.80453 4.56814 4.79667 4.58103C1.55565 9.42307 0.667761 14.1461 1.10331 18.8106C1.10526 18.8334 1.1181 18.8552 1.13583 18.8691C3.27416 20.4395 5.34554 21.3928 7.37841 22.0247C7.41092 22.0346 7.4454 22.0228 7.4661 21.996C7.94696 21.3393 8.37562 20.6469 8.74315 19.9187C8.76483 19.8761 8.74413 19.8254 8.69979 19.8086C8.01986 19.5507 7.37245 19.2362 6.74965 18.8791C6.70038 18.8503 6.69642 18.7799 6.74179 18.7461C6.87284 18.6479 7.00394 18.5457 7.12909 18.4426C7.15175 18.4237 7.18329 18.4198 7.2099 18.4316C11.3013 20.2996 15.7308 20.2996 19.7739 18.4316C19.8005 18.4187 19.832 18.4227 19.8557 18.4415C19.9808 18.5447 20.1119 18.6479 20.2439 18.7461C20.2892 18.7798 20.2863 18.8503 20.237 18.879C19.6142 19.2431 18.9668 19.5506 18.2859 19.8075C18.2416 19.8244 18.2219 19.876 18.2436 19.9186C18.619 20.6458 19.0477 21.3382 19.5197 21.9949C19.5394 22.0227 19.5748 22.0346 19.6074 22.0247C21.6501 21.3928 23.7215 20.4394 25.8598 18.8691C25.8786 18.8552 25.8904 18.8344 25.8923 18.8115C26.4136 13.4189 25.0192 8.7346 22.196 4.58201C22.1892 4.56814 22.1774 4.55823 22.1636 4.55227ZM9.35424 15.9704C8.12245 15.9704 7.10746 14.8395 7.10746 13.4507C7.10746 12.0618 8.10272 10.9309 9.35424 10.9309C10.6155 10.9309 11.6207 12.0718 11.601 13.4507C11.601 14.8395 10.6057 15.9704 9.35424 15.9704ZM17.6612 15.9704C16.4295 15.9704 15.4145 14.8395 15.4145 13.4507C15.4145 12.0618 16.4098 10.9309 17.6612 10.9309C18.9225 10.9309 19.9277 12.0718 19.908 13.4507C19.908 14.8395 18.9226 15.9704 17.6612 15.9704Z" fill="#6C52EE"></path></svg>